<?xml version="1.0" encoding="UTF-8"?>
<svg width="150px" height="66px" viewBox="0 0 150 66" version="1.1" xmlns="http://www.w3.org/2000/svg" xmlns:xlink="http://www.w3.org/1999/xlink">
    <!-- Generator: Sketch 55.1 (78136) - https://sketchapp.com -->
    <title>Group 6</title>
    <desc>Created with Sketch.</desc>
    <g id="Page-1" stroke="none" stroke-width="1" fill="none" fill-rule="evenodd">
        <g id="Group-6">
            <polygon id="Rectangle" fill="#00758B" points="99.9936646 0 111.822181 7.73776802 150 66 117.049255 66 91.7318675 29.839414 83.3333333 14.1965926 87.0666386 9.7035316"></polygon>
            <polygon id="Rectangle" fill="#00758B" points="117.171717 65.8715724 80.33172 66 68.2061945 47.4576484 58.3333333 32.4233156 62.3566624 24.4268902 79.2337487 11 83.5894709 14.2090795 91.9161573 29.7141098"></polygon>
            <polygon id="Rectangle" fill="#008C94" points="70.4262693 50.75 58.3333333 32.4006771 62.3514153 24.4127017 79.2064909 11 80.3030303 11.8326809"></polygon>
            <polygon id="Rectangle" fill="#008C94" points="100.089089 -1.13686838e-13 111.907558 7.72273925 149.747475 65.75 80.1784335 66 76.7676768 60.9372008 91.7561458 29.6885612 97.4966419 23.7460319"></polygon>
            <polygon id="Rectangle" fill="#009E9B" transform="translate(115.448932, 45.000000) scale(-1, 1) translate(-115.448932, -45.000000) " points="107.533844 41.7279961 133.465176 24 139.231197 29.9359521 133.96813 37.4889571 132.405239 58.5140723 150 66 80.8978638 66"></polygon>
            <polygon id="Rectangle" fill="#00758B" points="45.4636673 22.25 56.406718 29.3642379 80.3030303 66 49.5009415 66 37.5922387 49.4907324 30.0505051 35.3025931 33.5043403 31.171595"></polygon>
            <path d="M46.3971431,22.6926959 L56.6592432,29.3642379 L80.5555556,66 L30.3030303,66 L38.0004874,49.5992968 L43.3157732,44.125 L45.6275985,23.0573564 C45.6577198,22.7828618 45.9046598,22.584758 46.1791544,22.6148792 C46.2569036,22.6234109 46.3315669,22.6500639 46.3971431,22.6926959 Z" id="Rectangle" fill="#008C94"></path>
            <polygon id="Rectangle" fill="#00758B" points="49.7474747 66 19.5305733 66 0 66 10.7434961 44.7992982 26.3141944 32.5 30.3327575 35.4395806 38.0149083 49.6424963"></polygon>
            <polygon id="Rectangle" fill="#008C94" points="19.491659 66 0 66 10.7220899 44.7992982 26.2617639 32.5 27.2727273 33.2635591"></polygon>
            <polygon id="Rectangle" fill="#009E9B" points="64.9197252 42.0015526 80.5555556 66 30.3030303 66 38.0004874 49.5643772 43.3004665 44.0874837 44.2662363 35.5"></polygon>
            <polygon id="Rectangle" fill="#008C94" transform="translate(55.429293, 54.750000) scale(-1, 1) translate(-55.429293, -54.750000) " points="55.2819802 43.5 72.80267 49.6032337 80.5555556 66 45.0785509 65.945956 30.3030303 66"></polygon>
            <polygon id="Rectangle" fill="#00B7A6" transform="translate(65.151515, 54.750000) scale(-1, 1) translate(-65.151515, -54.750000) " points="74.8047899 43.5 80.3916721 54.6665528 80.5555556 66 49.7474747 66"></polygon>
        </g>
    </g>
</svg>