<?xml version="1.0" encoding="UTF-8"?>
<svg width="150px" height="66px" viewBox="0 0 600 264" version="1.1" xmlns="http://www.w3.org/2000/svg" xmlns:xlink="http://www.w3.org/1999/xlink">
    <!-- Generator: Sketch 55 (78076) - https://sketchapp.com -->
    <title>Group</title>
    <desc>Created with Sketch.</desc>
    <g id="Page-1" stroke="none" stroke-width="1" fill="none" fill-rule="evenodd">
        <g id="Group">
            <polygon id="Rectangle" fill="#2E3538" points="399.974658 1.13686838e-13 447.288726 30.9510721 600 264 468.19702 264 366.92747 119.357656 333.333333 56.7863706 348.266554 38.8141264"></polygon>
            <polygon id="Rectangle" fill="#2E3538" points="468.686869 263.486289 321.32688 264 272.824778 189.830594 233.333333 129.693263 249.42665 97.7075609 316.934995 44 334.357884 56.836318 367.664629 118.856439"></polygon>
            <polygon id="Rectangle" fill="#5C6A70" points="281.705077 203 233.333333 129.602708 249.405661 97.6508067 316.825964 44 321.212121 47.3307236"></polygon>
            <polygon id="Rectangle" fill="#5C6A70" points="400.356356 0 447.630231 30.890957 598.989899 263 320.713734 264 307.070707 243.748803 367.024583 118.754245 389.986567 94.9841278"></polygon>
            <polygon id="Rectangle" fill="#C7CED1" transform="translate(461.795728, 180.000000) scale(-1, 1) translate(-461.795728, -180.000000) " points="430.135377 166.911985 533.860705 96 556.924788 119.743809 535.872522 149.955828 529.620956 234.056289 600 264 323.591455 264"></polygon>
            <polygon id="Rectangle" fill="#2E3538" points="181.854669 89 225.626872 117.456952 321.212121 264 198.003766 264 150.368955 197.96293 120.20202 141.210373 134.017361 124.68638"></polygon>
            <path d="M185.588572,90.7707837 L226.636973,117.456952 L322.222222,264 L121.212121,264 L152.001949,198.397187 L173.263093,176.5 L182.510394,92.2294257 C182.630879,91.131447 183.618639,90.3390318 184.716618,90.4595168 C185.027614,90.4936436 185.326268,90.6002556 185.588572,90.7707837 Z" id="Rectangle" fill="#5C6A70"></path>
            <polygon id="Rectangle" fill="#2E3538" points="198.989899 264 78.1222934 264 1.56319402e-13 264 42.9739846 179.197193 105.256778 130 121.33103 141.758322 152.059633 198.569985"></polygon>
            <polygon id="Rectangle" fill="#5C6A70" points="77.9666362 264 4.12114787e-13 264 42.8883597 179.197193 105.047055 130 109.090909 133.054236"></polygon>
            <polygon id="Rectangle" fill="#C7CED1" points="259.678901 168.00621 322.222222 264 121.212121 264 152.001949 198.257509 173.201866 176.349935 177.064945 142"></polygon>
            <polygon id="Rectangle" fill="#5C6A70" transform="translate(221.717172, 219.000000) scale(-1, 1) translate(-221.717172, -219.000000) " points="221.127921 174 291.21068 198.412935 322.222222 264 180.314204 263.783824 121.212121 264"></polygon>
            <polygon id="Rectangle" fill="#EEF0F1" transform="translate(260.606061, 219.000000) scale(-1, 1) translate(-260.606061, -219.000000) " points="299.219159 174 321.566688 218.666211 322.222222 264 198.989899 264"></polygon>
        </g>
    </g>
</svg>